<svg width="13" height="13" viewBox="0 0 13 13" fill="none" xmlns="http://www.w3.org/2000/svg">
<path d="M11.4666 5.33037H6.97822V0.841972C6.97822 0.641459 6.89857 0.449159 6.75678 0.307375C6.615 0.165591 6.4227 0.0859375 6.22219 0.0859375C6.02167 0.0859375 5.82937 0.165591 5.68759 0.307375C5.54581 0.449159 5.46615 0.641459 5.46615 0.841972V5.33037H0.978691C0.778178 5.33037 0.585878 5.41002 0.444094 5.55181C0.30231 5.69359 0.222656 5.88589 0.222656 6.08641C0.222656 6.28692 0.30231 6.47922 0.444094 6.621C0.585878 6.76279 0.778178 6.84244 0.978691 6.84244H5.46709V11.3299C5.46709 11.5304 5.54674 11.7227 5.68853 11.8645C5.83031 12.0063 6.02261 12.0859 6.22312 12.0859C6.42364 12.0859 6.61594 12.0063 6.75772 11.8645C6.89951 11.7227 6.97916 11.5304 6.97916 11.3299V6.8415H11.4666C11.6671 6.8415 11.8594 6.76185 12.0012 6.62007C12.143 6.47828 12.2227 6.28598 12.2227 6.08547C12.2227 5.88496 12.143 5.69266 12.0012 5.55087C11.8594 5.40909 11.6671 5.32943 11.4666 5.32943V5.33037Z" fill="white"/>
</svg>
