<svg width="20" height="19" viewBox="0 0 20 19" fill="none" xmlns="http://www.w3.org/2000/svg">
<path d="M10.0557 0C9.48844 0 9.02864 0.459826 9.02864 1.02703V8.473H1.58269C1.01549 8.473 0.555664 8.9328 0.555664 9.50003C0.555664 10.0673 1.01549 10.5271 1.58269 10.5271H9.02864V17.973C9.02864 18.5402 9.48844 19 10.0557 19C10.6229 19 11.0827 18.5402 11.0827 17.973V10.5271H18.5286C19.0958 10.5271 19.5557 10.0673 19.5557 9.50003C19.5557 8.9328 19.0958 8.473 18.5286 8.473H11.0827V1.02703C11.0827 0.459826 10.6229 0 10.0557 0Z" fill="#3C3C43" fill-opacity="0.85"/>
</svg>
