<svg width="14" height="14" viewBox="0 0 14 14" fill="none" xmlns="http://www.w3.org/2000/svg">
<path d="M12.3333 5.90022H7.47087V1.03779C7.47087 0.820565 7.38458 0.61224 7.23098 0.458641C7.07738 0.305041 6.86906 0.21875 6.65184 0.21875C6.43461 0.21875 6.22629 0.305041 6.07269 0.458641C5.91909 0.61224 5.8328 0.820565 5.8328 1.03779V5.90022H0.971381C0.754159 5.90022 0.545834 5.98651 0.392234 6.14011C0.238635 6.29371 0.152344 6.50203 0.152344 6.71926C0.152344 6.93648 0.238635 7.1448 0.392234 7.2984C0.545834 7.452 0.754159 7.53829 0.971381 7.53829H5.83381V12.3997C5.83381 12.6169 5.9201 12.8253 6.0737 12.9789C6.2273 13.1325 6.43563 13.2188 6.65285 13.2188C6.87007 13.2188 7.0784 13.1325 7.232 12.9789C7.3856 12.8253 7.47189 12.6169 7.47189 12.3997V7.53728H12.3333C12.5505 7.53728 12.7589 7.45099 12.9125 7.29739C13.0661 7.14379 13.1523 6.93546 13.1523 6.71824C13.1523 6.50102 13.0661 6.29269 12.9125 6.13909C12.7589 5.9855 12.5505 5.8992 12.3333 5.8992V5.90022Z" fill="#ffff"/>
</svg>
