<svg width="14" height="14" viewBox="0 0 14 14" fill="none" xmlns="http://www.w3.org/2000/svg">
<path d="M7 0C6.58204 0 6.24324 0.338819 6.24324 0.756757V6.24327H0.756757C0.338819 6.24327 0 6.58207 0 7.00002C0 7.41798 0.338819 7.75678 0.756757 7.75678H6.24324V13.2432C6.24324 13.6612 6.58204 14 7 14C7.41796 14 7.75676 13.6612 7.75676 13.2432V7.75678H13.2432C13.6612 7.75678 14 7.41798 14 7.00002C14 6.58207 13.6612 6.24327 13.2432 6.24327H7.75676V0.756757C7.75676 0.338819 7.41796 0 7 0Z" fill="#BF9056"/>
</svg>
