<svg width="14" height="14" viewBox="0 0 14 14" fill="none" xmlns="http://www.w3.org/2000/svg">
<path d="M12.3333 6.18147H7.47087V1.31904C7.47087 1.10182 7.38458 0.89349 7.23098 0.739891C7.07738 0.586291 6.86906 0.5 6.65184 0.5C6.43461 0.5 6.22629 0.586291 6.07269 0.739891C5.91909 0.89349 5.8328 1.10182 5.8328 1.31904V6.18147H0.971381C0.754159 6.18147 0.545834 6.26776 0.392234 6.42136C0.238635 6.57496 0.152344 6.78328 0.152344 7.00051C0.152344 7.21773 0.238635 7.42605 0.392234 7.57965C0.545834 7.73325 0.754159 7.81954 0.971381 7.81954H5.83381V12.681C5.83381 12.8982 5.9201 13.1065 6.0737 13.2601C6.2273 13.4137 6.43563 13.5 6.65285 13.5C6.87007 13.5 7.0784 13.4137 7.232 13.2601C7.3856 13.1065 7.47189 12.8982 7.47189 12.681V7.81853H12.3333C12.5505 7.81853 12.7589 7.73224 12.9125 7.57864C13.0661 7.42504 13.1523 7.21671 13.1523 6.99949C13.1523 6.78227 13.0661 6.57394 12.9125 6.42034C12.7589 6.26675 12.5505 6.18045 12.3333 6.18045V6.18147Z" fill="white"/>
</svg>
