<svg width="133" height="39" viewBox="0 0 133 39" fill="none" xmlns="http://www.w3.org/2000/svg">
<path d="M131.471 33.9255C131.471 35.955 129.793 37.5988 127.717 37.5988H4.872C2.79731 37.5988 1.11328 35.955 1.11328 33.9255V4.63197C1.11328 2.6035 2.79731 0.953857 4.872 0.953857H127.716C129.793 0.953857 131.47 2.6035 131.47 4.63197L131.471 33.9255Z" fill="white"/>
<path d="M127.321 0.998185C129.581 0.998185 131.421 2.79161 131.421 4.99561V33.5571C131.421 35.7611 129.581 37.5546 127.321 37.5546H5.26317C3.00266 37.5546 1.16325 35.7611 1.16325 33.5571V4.99561C1.16325 2.79161 3.00266 0.998185 5.26317 0.998185H127.321ZM127.321 0.235354H5.26317C2.57912 0.235354 0.380859 2.37866 0.380859 4.99561V33.5571C0.380859 36.1741 2.57912 38.3174 5.26317 38.3174H127.321C130.005 38.3174 132.203 36.1741 132.203 33.5571V4.99561C132.203 2.37866 130.005 0.235354 127.321 0.235354Z" fill="#A6A6A6"/>
<path d="M29.7991 19.0703C29.7708 16.0018 32.376 14.509 32.4951 14.4395C31.0197 12.3421 28.7328 12.0556 27.9292 12.0327C26.0085 11.8356 24.1454 13.1533 23.167 13.1533C22.1691 13.1533 20.6624 12.0518 19.0385 12.0841C16.9489 12.1155 14.994 13.2951 13.9219 15.1269C11.7092 18.8618 13.3594 24.3503 15.4793 27.3693C16.5398 28.8478 17.7789 30.4987 19.4008 30.4406C20.9875 30.3768 21.5803 29.4543 23.4951 29.4543C25.3924 29.4543 25.9489 30.4406 27.6031 30.4035C29.306 30.3768 30.3782 28.9183 31.4015 27.4264C32.627 25.7318 33.1191 24.0628 33.1386 23.9771C33.0986 23.9638 29.8314 22.7481 29.7991 19.0703Z" fill="black"/>
<path d="M26.6745 10.0467C27.5279 9.00615 28.1118 7.59045 27.9497 6.15381C26.7145 6.20712 25.1697 6.98685 24.2802 8.0046C23.4931 8.90143 22.7901 10.3714 22.9717 11.7538C24.3593 11.8547 25.7839 11.0711 26.6745 10.0467Z" fill="black"/>
<path d="M52.7625 30.229H50.545L49.3303 26.5074H45.1081L43.9509 30.229H41.792L45.9752 17.5591H48.5589L52.7625 30.229ZM48.9641 24.946L47.8656 21.6377C47.7494 21.2997 47.5316 20.5038 47.2104 19.2509H47.1713C47.0434 19.7897 46.8374 20.5857 46.5542 21.6377L45.4752 24.946H48.9641Z" fill="black"/>
<path d="M63.5206 25.5487C63.5206 27.1024 63.0899 28.3306 62.2287 29.2322C61.4573 30.0347 60.4994 30.4355 59.3559 30.4355C58.1217 30.4355 57.2351 30.0033 56.6951 29.1389H56.656V33.9515H54.5742V24.1006C54.5742 23.1238 54.5478 22.1213 54.4971 21.0931H56.3279L56.4441 22.5411H56.4832C57.1775 21.4501 58.2311 20.9055 59.645 20.9055C60.7503 20.9055 61.6731 21.3311 62.4113 22.1832C63.1515 23.0362 63.5206 24.1577 63.5206 25.5487ZM61.3997 25.6229C61.3997 24.7337 61.1946 24.0006 60.7826 23.4237C60.3324 22.822 59.728 22.5211 58.9702 22.5211C58.4566 22.5211 57.9899 22.6887 57.5729 23.0191C57.155 23.3523 56.8816 23.7874 56.7537 24.3262C56.6892 24.5776 56.657 24.7832 56.657 24.9451V26.4683C56.657 27.1329 56.866 27.6936 57.2839 28.1516C57.7018 28.6095 58.2447 28.838 58.9126 28.838C59.6967 28.838 60.307 28.5429 60.7435 27.9545C61.181 27.3652 61.3997 26.5883 61.3997 25.6229Z" fill="black"/>
<path d="M74.2969 25.5487C74.2969 27.1024 73.8663 28.3306 73.0041 29.2322C72.2337 30.0347 71.2758 30.4355 70.1323 30.4355C68.8981 30.4355 68.0114 30.0033 67.4724 29.1389H67.4334V33.9515H65.3516V24.1006C65.3516 23.1238 65.3252 22.1213 65.2744 21.0931H67.1053L67.2215 22.5411H67.2605C67.9538 21.4501 69.0074 20.9055 70.4223 20.9055C71.5267 20.9055 72.4495 21.3311 73.1896 22.1832C73.9269 23.0362 74.2969 24.1577 74.2969 25.5487ZM72.1761 25.6229C72.1761 24.7337 71.97 24.0006 71.5579 23.4237C71.1078 22.822 70.5053 22.5211 69.7466 22.5211C69.232 22.5211 68.7662 22.6887 68.3483 23.0191C67.9304 23.3523 67.658 23.7874 67.53 24.3262C67.4666 24.5776 67.4334 24.7832 67.4334 24.9451V26.4683C67.4334 27.1329 67.6423 27.6936 68.0583 28.1516C68.4762 28.6086 69.0192 28.838 69.689 28.838C70.4731 28.838 71.0834 28.5429 71.5199 27.9545C71.9573 27.3652 72.1761 26.5883 72.1761 25.6229Z" fill="black"/>
<path d="M86.3473 26.6755C86.3473 27.7533 85.9636 28.6301 85.1931 29.307C84.3466 30.0467 83.168 30.4161 81.6535 30.4161C80.2552 30.4161 79.1342 30.1534 78.2856 29.6269L78.768 27.9351C79.682 28.474 80.6848 28.7443 81.7775 28.7443C82.5616 28.7443 83.1719 28.5711 83.6103 28.2264C84.0468 27.8818 84.2645 27.4191 84.2645 26.8421C84.2645 26.328 84.0849 25.8949 83.7245 25.5435C83.3662 25.1922 82.7676 24.8657 81.9318 24.5639C79.6566 23.7366 78.52 22.5246 78.52 20.9309C78.52 19.8893 78.9184 19.0353 79.7162 18.3708C80.511 17.7053 81.5714 17.373 82.8975 17.373C84.08 17.373 85.0623 17.5739 85.8464 17.9747L85.3259 19.6294C84.5936 19.241 83.7656 19.0468 82.8389 19.0468C82.1065 19.0468 81.5343 19.2229 81.1242 19.5732C80.7776 19.8865 80.6038 20.2682 80.6038 20.7205C80.6038 21.2212 80.802 21.6354 81.2004 21.961C81.547 22.2618 82.1769 22.5874 83.0908 22.9387C84.2089 23.3776 85.0301 23.8908 85.5583 24.4792C86.0847 25.0656 86.3473 25.7996 86.3473 26.6755Z" fill="black"/>
<path d="M93.2304 22.6163H90.9357V27.0519C90.9357 28.1801 91.3399 28.7437 92.1504 28.7437C92.5224 28.7437 92.831 28.7123 93.0751 28.6494L93.1327 30.1908C92.7226 30.3403 92.1826 30.4155 91.5137 30.4155C90.6916 30.4155 90.0491 30.1708 89.5852 29.6824C89.1234 29.1931 88.891 28.3724 88.891 27.2195V22.6144H87.5239V21.0911H88.891V19.4183L90.9357 18.8167V21.0911H93.2304V22.6163Z" fill="black"/>
<path d="M103.584 25.5856C103.584 26.9899 103.171 28.1428 102.349 29.0444C101.487 29.9726 100.343 30.4353 98.916 30.4353C97.5412 30.4353 96.4466 29.9907 95.6302 29.1015C94.8139 28.2123 94.4058 27.0898 94.4058 25.737C94.4058 24.3213 94.8256 23.1617 95.6683 22.2601C96.5091 21.3575 97.6437 20.9062 99.0703 20.9062C100.445 20.9062 101.552 21.3509 102.386 22.241C103.185 23.1045 103.584 24.2194 103.584 25.5856ZM101.424 25.6513C101.424 24.8087 101.239 24.0861 100.865 23.4835C100.429 22.7542 99.8046 22.3905 98.9961 22.3905C98.1593 22.3905 97.5236 22.7551 97.0871 23.4835C96.7131 24.0871 96.5286 24.8211 96.5286 25.6894C96.5286 26.5319 96.7131 27.2545 97.0871 27.8562C97.5373 28.5855 98.1661 28.9492 98.9776 28.9492C99.7724 28.9492 100.396 28.5779 100.847 27.8372C101.23 27.2231 101.424 26.4929 101.424 25.6513Z" fill="black"/>
<path d="M110.35 22.8782C110.144 22.841 109.924 22.822 109.694 22.822C108.962 22.822 108.395 23.0914 107.997 23.6312C107.65 24.1073 107.476 24.709 107.476 25.4354V30.229H105.395L105.415 23.9702C105.415 22.9172 105.389 21.9585 105.337 21.094H107.15L107.226 22.842H107.284C107.504 22.2412 107.85 21.7576 108.325 21.3949C108.789 21.0683 109.29 20.9055 109.83 20.9055C110.022 20.9055 110.196 20.9188 110.35 20.9426V22.8782Z" fill="black"/>
<path d="M119.661 25.2283C119.661 25.592 119.637 25.8986 119.585 26.149H113.34C113.364 27.0515 113.666 27.7418 114.246 28.2178C114.772 28.6433 115.453 28.8566 116.289 28.8566C117.213 28.8566 118.057 28.7128 118.816 28.4244L119.142 29.8334C118.255 30.2104 117.208 30.398 116 30.398C114.548 30.398 113.407 29.981 112.577 29.1479C111.749 28.3149 111.334 27.1962 111.334 25.7929C111.334 24.4153 111.72 23.2681 112.492 22.3531C113.301 21.3763 114.393 20.8879 115.768 20.8879C117.119 20.8879 118.141 21.3763 118.835 22.3531C119.385 23.1291 119.661 24.0887 119.661 25.2283ZM117.676 24.7019C117.69 24.1002 117.554 23.5803 117.272 23.1414C116.912 22.5769 116.358 22.2951 115.613 22.2951C114.932 22.2951 114.379 22.5702 113.956 23.1224C113.609 23.5613 113.403 24.0878 113.34 24.7009H117.676V24.7019Z" fill="black"/>
<path d="M48.2763 9.76402C48.2763 10.8846 47.9316 11.7281 47.2432 12.2946C46.6056 12.8172 45.6994 13.0791 44.5257 13.0791C43.9438 13.0791 43.4458 13.0543 43.0288 13.0048V6.88216C43.5727 6.79648 44.1586 6.75269 44.7913 6.75269C45.9094 6.75269 46.7521 6.98975 47.3204 7.46387C47.957 7.99987 48.2763 8.76627 48.2763 9.76402ZM47.1973 9.79163C47.1973 9.06522 47.0001 8.50827 46.6056 8.11983C46.2111 7.73235 45.635 7.53813 44.8763 7.53813C44.554 7.53813 44.2797 7.55907 44.0521 7.60287V12.2574C44.1781 12.2765 44.4086 12.2851 44.7435 12.2851C45.5266 12.2851 46.131 12.0727 46.5568 11.6481C46.9825 11.2235 47.1973 10.6047 47.1973 9.79163Z" fill="black"/>
<path d="M53.9981 10.7428C53.9981 11.4331 53.7959 11.9986 53.3917 12.4422C52.9679 12.8983 52.4064 13.1258 51.7053 13.1258C51.0296 13.1258 50.4916 12.9078 50.0903 12.4698C49.6899 12.0329 49.4897 11.4816 49.4897 10.8171C49.4897 10.1221 49.6958 9.55181 50.1098 9.10911C50.5238 8.66641 51.0804 8.44458 51.7815 8.44458C52.4572 8.44458 53.0001 8.6626 53.4112 9.09959C53.8018 9.52421 53.9981 10.0726 53.9981 10.7428ZM52.9367 10.7752C52.9367 10.3611 52.8449 10.0059 52.6623 9.70985C52.4475 9.35188 52.1418 9.1729 51.7444 9.1729C51.3333 9.1729 51.0208 9.35188 50.806 9.70985C50.6224 10.0059 50.5316 10.3668 50.5316 10.7933C50.5316 11.2074 50.6234 11.5625 50.806 11.8586C51.0277 12.2166 51.3362 12.3956 51.7346 12.3956C52.1252 12.3956 52.4318 12.2137 52.6525 11.8491C52.8419 11.5473 52.9367 11.1893 52.9367 10.7752Z" fill="black"/>
<path d="M61.6678 8.53589L60.2275 13.0239H59.2901L58.6935 11.075C58.5421 10.5885 58.4191 10.1049 58.3234 9.62503H58.3048C58.216 10.1182 58.0929 10.6009 57.9348 11.075L57.301 13.0239H56.3529L54.9985 8.53589H56.0502L56.5706 10.6694C56.6966 11.174 56.8001 11.6548 56.8831 12.1099H56.9017C56.9778 11.7348 57.1038 11.2569 57.2815 10.679L57.9348 8.53684H58.7687L59.3946 10.6333C59.5459 11.1445 59.6689 11.6367 59.7637 12.1108H59.792C59.8613 11.6491 59.9658 11.1569 60.1045 10.6333L60.663 8.53684H61.6678V8.53589Z" fill="black"/>
<path d="M66.9732 13.0236H65.9499V10.4531C65.9499 9.66098 65.6413 9.26493 65.0222 9.26493C64.7186 9.26493 64.4735 9.37346 64.2831 9.59148C64.0946 9.8095 63.9989 10.0666 63.9989 10.3607V13.0227H62.9756V9.81807C62.9756 9.42392 62.9629 8.99645 62.9385 8.53376H63.8378L63.8856 9.23542H63.914C64.0331 9.0174 64.2108 8.83746 64.4442 8.6937C64.7215 8.52614 65.032 8.44141 65.3718 8.44141C65.8015 8.44141 66.1588 8.5766 66.443 8.84793C66.7965 9.1802 66.9732 9.67622 66.9732 10.335V13.0236Z" fill="black"/>
<path d="M69.7953 13.0238H68.7729V6.47656H69.7953V13.0238Z" fill="black"/>
<path d="M75.8199 10.7428C75.8199 11.4331 75.6177 11.9986 75.2135 12.4422C74.7897 12.8983 74.2272 13.1258 73.5271 13.1258C72.8504 13.1258 72.3124 12.9078 71.912 12.4698C71.5117 12.0329 71.3115 11.4816 71.3115 10.8171C71.3115 10.1221 71.5176 9.55181 71.9316 9.10911C72.3456 8.66641 72.9022 8.44458 73.6023 8.44458C74.279 8.44458 74.8209 8.6626 75.233 9.09959C75.6236 9.52421 75.8199 10.0726 75.8199 10.7428ZM74.7575 10.7752C74.7575 10.3611 74.6657 10.0059 74.4831 9.70985C74.2692 9.35188 73.9626 9.1729 73.5662 9.1729C73.1541 9.1729 72.8416 9.35188 72.6278 9.70985C72.4442 10.0059 72.3534 10.3668 72.3534 10.7933C72.3534 11.2074 72.4452 11.5625 72.6278 11.8586C72.8495 12.2166 73.158 12.3956 73.5564 12.3956C73.947 12.3956 74.2526 12.2137 74.4733 11.8491C74.6637 11.5473 74.7575 11.1893 74.7575 10.7752Z" fill="black"/>
<path d="M80.7726 13.0239H79.8537L79.7775 12.507H79.7492C79.4348 12.9192 78.9866 13.1258 78.4046 13.1258C77.9701 13.1258 77.6186 12.9897 77.354 12.7193C77.1138 12.4737 76.9937 12.168 76.9937 11.8053C76.9937 11.2569 77.228 10.839 77.6996 10.5496C78.1703 10.2601 78.8323 10.1183 79.6848 10.1249V10.0412C79.6848 9.44995 79.3665 9.15481 78.7288 9.15481C78.2748 9.15481 77.8744 9.2662 77.5288 9.48708L77.3208 8.83206C77.7485 8.57406 78.2767 8.44458 78.8997 8.44458C80.1027 8.44458 80.7062 9.06341 80.7062 10.3011V11.9538C80.7062 12.4023 80.7286 12.7593 80.7726 13.0239ZM79.7102 11.4816V10.7895C78.5814 10.7704 78.017 11.0722 78.017 11.6939C78.017 11.9281 78.0814 12.1033 78.2133 12.2204C78.3451 12.3375 78.513 12.3956 78.7132 12.3956C78.9378 12.3956 79.1477 12.3261 79.3391 12.188C79.5315 12.049 79.6496 11.8729 79.6936 11.6568C79.7043 11.6082 79.7102 11.5492 79.7102 11.4816Z" fill="black"/>
<path d="M86.5879 13.0238H85.6798L85.632 12.3031H85.6036C85.3136 12.8515 84.8195 13.1257 84.1253 13.1257C83.5707 13.1257 83.1088 12.9134 82.7426 12.4888C82.3764 12.0641 82.1938 11.5129 82.1938 10.836C82.1938 10.1096 82.3921 9.52122 82.7905 9.07185C83.1762 8.65295 83.6488 8.4435 84.2112 8.4435C84.8293 8.4435 85.2619 8.64629 85.508 9.05281H85.5275V6.47656H86.5518V11.8147C86.5518 12.2517 86.5635 12.6544 86.5879 13.0238ZM85.5275 11.1311V10.3828C85.5275 10.2533 85.5177 10.1486 85.4992 10.0687C85.4416 9.82873 85.3175 9.6269 85.1291 9.4641C84.9387 9.3013 84.7092 9.21942 84.4446 9.21942C84.0628 9.21942 83.764 9.36699 83.5443 9.66308C83.3265 9.95916 83.2162 10.3371 83.2162 10.7989C83.2162 11.2425 83.3207 11.6024 83.5306 11.8795C83.7523 12.1746 84.0511 12.3222 84.4251 12.3222C84.761 12.3222 85.0295 12.1993 85.2336 11.9528C85.4308 11.7252 85.5275 11.451 85.5275 11.1311Z" fill="black"/>
<path d="M95.3399 10.7428C95.3399 11.4331 95.1377 11.9986 94.7335 12.4422C94.3097 12.8983 93.7492 13.1258 93.0471 13.1258C92.3724 13.1258 91.8344 12.9078 91.4321 12.4698C91.0317 12.0329 90.8315 11.4816 90.8315 10.8171C90.8315 10.1221 91.0376 9.55181 91.4516 9.10911C91.8656 8.66641 92.4222 8.44458 93.1243 8.44458C93.799 8.44458 94.3429 8.6626 94.753 9.09959C95.1436 9.52421 95.3399 10.0726 95.3399 10.7428ZM94.2794 10.7752C94.2794 10.3611 94.1876 10.0059 94.005 9.70985C93.7892 9.35188 93.4846 9.1729 93.0862 9.1729C92.6761 9.1729 92.3636 9.35188 92.1478 9.70985C91.9642 10.0059 91.8734 10.3668 91.8734 10.7933C91.8734 11.2074 91.9652 11.5625 92.1478 11.8586C92.3695 12.2166 92.678 12.3956 93.0764 12.3956C93.467 12.3956 93.7746 12.2137 93.9953 11.8491C94.1837 11.5473 94.2794 11.1893 94.2794 10.7752Z" fill="black"/>
<path d="M100.842 13.0236H99.82V10.4531C99.82 9.66098 99.5114 9.26493 98.8914 9.26493C98.5877 9.26493 98.3426 9.37346 98.1532 9.59148C97.9637 9.8095 97.869 10.0666 97.869 10.3607V13.0227H96.8447V9.81807C96.8447 9.42392 96.833 8.99645 96.8086 8.53376H97.7069L97.7548 9.23542H97.7831C97.9032 9.0174 98.0809 8.83746 98.3133 8.6937C98.5916 8.52614 98.9012 8.44141 99.2419 8.44141C99.6706 8.44141 100.028 8.5766 100.312 8.84793C100.667 9.1802 100.842 9.67622 100.842 10.335V13.0236Z" fill="black"/>
<path d="M107.729 9.28352H106.602V11.4637C106.602 12.0178 106.803 12.2949 107.199 12.2949C107.383 12.2949 107.535 12.2796 107.655 12.2482L107.681 13.0051C107.479 13.0794 107.214 13.1165 106.887 13.1165C106.482 13.1165 106.168 12.9965 105.94 12.7566C105.712 12.5167 105.599 12.113 105.599 11.5465V9.28352H104.926V8.53616H105.599V7.71359L106.601 7.41846V8.53521H107.728V9.28352H107.729Z" fill="black"/>
<path d="M113.147 13.0238H112.123V10.4723C112.123 9.66784 111.814 9.26512 111.196 9.26512C110.722 9.26512 110.397 9.49837 110.22 9.96488C110.189 10.0629 110.172 10.1829 110.172 10.3238V13.0229H109.149V6.47656H110.172V9.18134H110.191C110.514 8.68913 110.975 8.4435 111.574 8.4435C111.998 8.4435 112.348 8.57869 112.627 8.85002C112.973 9.188 113.147 9.69069 113.147 10.3552V13.0238Z" fill="black"/>
<path d="M118.735 10.5679C118.735 10.7469 118.722 10.8973 118.697 11.0201H115.628C115.642 11.4638 115.788 11.8018 116.073 12.036C116.332 12.2454 116.667 12.3502 117.077 12.3502C117.531 12.3502 117.945 12.2797 118.318 12.1379L118.479 12.8309C118.042 13.0156 117.529 13.108 116.934 13.108C116.221 13.108 115.66 12.9033 115.253 12.4939C114.845 12.0845 114.643 11.5352 114.643 10.8459C114.643 10.169 114.832 9.6054 115.211 9.15603C115.608 8.6762 116.144 8.43628 116.821 8.43628C117.483 8.43628 117.985 8.6762 118.325 9.15603C118.6 9.53685 118.735 10.0081 118.735 10.5679ZM117.759 10.3099C117.767 10.0138 117.699 9.75868 117.561 9.54351C117.383 9.26647 117.113 9.12747 116.746 9.12747C116.412 9.12747 116.14 9.26266 115.932 9.53399C115.762 9.75011 115.662 10.0081 115.628 10.3099H117.759Z" fill="black"/>
</svg>
