<svg width="23" height="16" viewBox="0 0 23 16" fill="none" xmlns="http://www.w3.org/2000/svg">
<path d="M1 7C0.447715 7 4.82823e-08 7.44772 0 8C-4.82823e-08 8.55228 0.447715 9 1 9L1 7ZM22.1563 8.70711C22.5468 8.31658 22.5468 7.68342 22.1563 7.2929L15.7924 0.928933C15.4018 0.538409 14.7687 0.538409 14.3782 0.928933C13.9876 1.31946 13.9876 1.95262 14.3782 2.34315L20.035 8L14.3782 13.6569C13.9876 14.0474 13.9876 14.6805 14.3782 15.0711C14.7687 15.4616 15.4018 15.4616 15.7924 15.0711L22.1563 8.70711ZM1 9L21.4492 9L21.4492 7L1 7L1 9Z" fill="white"/>
</svg>
