<svg width="647" height="155" viewBox="0 0 647 155" fill="none" xmlns="http://www.w3.org/2000/svg">
<g clip-path="url(#clip0_2_37636)">
<path d="M589.409 44.7486C615.962 46.7769 645.966 50.5974 645.115 61.7421C644.298 64.1113 642.192 66.2872 638.96 68.1018C635.728 69.9164 631.457 71.3211 626.477 72.2075C626.477 72.2075 624.249 67.4515 594.029 65.1432C212.669 36.0132 105.485 57.5488 0.400521 71.1772C78.1257 46.4997 327.737 24.761 589.409 44.7486Z" fill="#ED1B23"/>
</g>
<g clip-path="url(#clip1_2_37636)">
<path d="M557.108 94.6107C573.583 96.5225 592.134 99.8817 591.12 108.613C590.508 110.461 589.1 112.143 587.006 113.527C584.912 114.911 582.187 115.961 579.042 116.597C579.042 116.597 577.858 112.839 559.108 110.663C322.493 83.2062 254.705 98.8029 188.568 108.223C238.117 89.8056 394.754 75.7708 557.108 94.6107Z" fill="#ED1B23"/>
</g>
<defs>
<clipPath id="clip0_2_37636">
<rect width="642.123" height="71.2968" fill="white" transform="translate(5.83594) rotate(4.36802)"/>
</clipPath>
<clipPath id="clip1_2_37636">
<rect width="399.914" height="56.0688" fill="white" transform="translate(195.039 52.4609) rotate(6.6191)"/>
</clipPath>
</defs>
</svg>
